<svg id="Слой_1" data-name="Слой 1" xmlns="http://www.w3.org/2000/svg" viewBox="0 0 582 712"><defs><clipPath id="myClip"><path class="cls-1" d="M274.56,1h3c-4.16,6.16-19.87,92.83-12,103h1l-2-12c3.37,1.48,3.07,2.81,6,0,11.05-23.28,10.46-51.42,19-75h4c1.45,5.56,3,8.51,3,17-3.57,11.66-14.05,52.75-10,64,4-29.38,14.66-55.59,21-79h7l1-9c-4.61,1.8-3.47,2.56-5,7l-3-2,2-2c2-3.66,5.24-5.17,8-8-.13,11.74,2.94,13.7,2,22-2.52-1.91,0-1.93-3-1,8.69,17-9.72,53.89-1,77h1l4-32h1l-2,32c3.73,2,1.64-.43,3,4l2-1,2-7c2.18,5.59,2,2.77,6,0V97l2,1c2.59,3.32,10.88,4.19,14,4,1.13-8.57,10.05-15.71,17-18v3c-1.82,3.71-3.13,6.67-3,10h1c7.19-2.42,9.18-7.75,17-10v5c6.41-.89,8.47-3.41,13-6,7.53,2.24,7.91,7.62,15,5l1-5h4a80,80,0,0,1,11,11l7-6,3-9v4c.19,1.43.2.27-2,4,4.41-1.44,4.37-2,6-6l5,3c-4.18,1.29-3.13.55-5,4l5,2c-2.83,9.34-2.59,21.62-1,31l2-1c.19-12.1,3.85-25,10-34,8.45,3.89,9.71,1.44,16-3l-1,9,2-1c1.44-5.85,2.85-6,8-8l2,2,5,1-1,2c-4.66,2.16-5.64,4.59-7,10h-1c.42-5.92,1.77-7.38,4-11l-1-1-4,3-6,27h5l-1,8c4.6-.58,3.76-1.74,7-1l2,7h1l2-12,2,1,2,6,2-1,3-9c-.41,9.26-3.27,12.85-2,21l5,2,3-11,1,7,2-1,5-8c-.94,4.84-1.48,3.12,0,7l2-1-2-10c3.5-1.42,8.82-6.25,10-10h1v8c4.1-1.46,2.68-1.33,5-4,1.8,8.47,6.14,3.93,7,14l-1,11,7-1c.34-4.56,2.46-7.21,5-12,4.08.65.83,1.63,4-1l1,5,2-4,1,30,1-3c5-2.24,5.18-34.65,11-42v2c12.74,22.35-1.78,104.22-5,137,4.08,1.82,3.14-1.26,4,5-9.18,2-1.36,8.53-1,18-2,2.28-2.52,1.71-4,5,5,.78,5.27,4.61,1,9-1.26-3,0-1.2-2-3v13l2-1,1-5v8c-3.64,2-3.62,5.09-5,9l4,6h6c.05-41.16,1.09-74.55,9-110h1c-.35,11.36-3.3,28,1,34l1-1c-.33-11.45.21-15.12,3-24h1l-11,192c2.53,12.18,6.94,24.49,9,36l-5-4-1,16v-2l-2-5h-1v13l-3,1h-1v-2l-1-10-2,1,1,14h3c-7.54,13.88,5.44,44.9,8,60-6.54,1.86-1.41,10.63-5,16-.65-3.81-1-4.84-3-7-.4,3.8,1.13,1.24-1,4-1.23-1.72-1.33-2.62-3-4l2,9c-5.81-3.91-11.39-5.92-14-14l-4,1,2,12h-1v-2l-7-18,2,18h-1v-2l-3-8-2,1c-.16,6,1.26,4.12-3,7l-16-1c-1.37-3.94-1.23-6-3-10-1.26,3,0,1.2-2,3l-3-10h-1l-1,1-1,8,4-1-2,5c-4.21-.66-6.54-1.73-9-4l2-3c-5.21,1.53-5.24,4.27-8,5,.48-3.89-.81-1,1-4h-4l2,7c-8.18,1.36-9.72,2.69-11,11-1.23-1.72-1.33-2.62-3-4-2.51,4.69-6.07,3.18-10,6,1.3,2.12,1.23,1.45,2,5h-1c-1.6-2.7-.34-1.38-3-3l-1,2,4,6-5-4-8,3c-1.93-3-.2-1.62-4-3-.46,6.06-.86,9.82,3,12l3-7c2.37-.28,1.25.22,4-1,.21,5.66,1.09,6.71,3,10-5.31.12-10.44,2.49-15,6a163.71,163.71,0,0,0,12,21l2,22c6.58,9.78,22,19.68,25,31-3.85-3.21-5.34-7.53-10-10v1l4,7h-1c-19.9-11.23-17.08-40-26-49l-2,1c0,.68.47,3.69-1,2-2.2-5.85-8.63-8.44-15-12v6c-2.59-5.19-4.75-8.29-10-12,2.87,25.07,20.15,49.88,35,65-4.77,2.16-5.53-.1-7,6l-9-8c1.75-1.52.92-2,1-6-2.65-2.06-3.27-1.74-5-5h-1c2.44,12.43,11.84,24.74-4,31v-1l5-5-4-7c-9.48,2.72-14.92-1.42-21,3l2-13-5-3,1,4c-3.88-1.53-5.37-2.82-9,0,.06,4.61-1.25,3-3,8-8.34-4.55-15.1,7.07-27,3l-3-2-1-6,5-3c-6.61-6.48-6.28-16.69-11-24-7.89.45-10-.51-16-3l4,6h-1l-5-7h-1v7c-4.15-1.42-6.68-.08-13,1l-1-5,10,2,1-1v-4l-4-1c2.6-4,2.42-2.76,2-9-6.54.51-8.42-2.78-16-4v1l6,15c-4.29-3-12.24-4.12-15-9,3.63,1.51,4.93,2.87,8,0v-5h-6c-3.79,2.64-5.47,2.6-9,5,2.67,3.61,2.71.42,1,5h-3l-4-6-4,5c-5-1-9.17-1.4-12-2l-2-4-8,5,3-6c-2.16-3.52-1.53-.9-2-5l-4,1c-.46,3.81-.82,6-3,8-6.2,2.64-12.08-1-11-5,4,2.12,1.67,2.29,5,1-9.23-7.83-14.49-10.27-28-13,1.82,11.26,7,15,10,26h-1c-6.86-6.39-6.19-16.35-12-24-2-2.41-2.13-2.21-6-3,1.88,19.41,2.19,28.11,9,46h-1l-5-4c.52,22.06,11,35.86,20,49l-11-7,1,7,4,2,3-2c.73,5.63,0,4.67,5,6v1h-6l2,5c-5.39-1.16-17-7.71-20-3-7,6.81-4.15,13.68-10,19-2.82-4.14-1.32-1-6-2,.43-5,1-3.26-4-3l3-6-7-4c-3.8,3.81-.23,2.77-5,2-2.24-3.49-4.17-3.21-10-3,2.26-8-.62-19-6-25v5l-2-1c-5.13-13.24-11.19-23.22-15-36-3.71-12.47-17.59-21.06-21-36l3,1-4-8c-3,1.63-7.49.76-9-6,7.62,3.12,5.54,2.75,12,7v-5l-5-16,5,1,1,5h1c-2.57-38.25-16.35-63.38-29-96-6.08-15.7-5.38-43.39-16-56-1.12,4-.62.49-4,4-1.19-18.45-6.57-37.34-11-52h1c2,3,.33,1,3,2l-1-9h-2l-2,7c-.82-1.82-.45-.63-2,0-4.12,6.36-3.25,10.47-8,16-1.19-2.23-1.09-2.49-3-4,.25,10.32-4.88,13-2,20h1c2-3.41.71-2.1,3-3l1,14-3-2,2,10-2-1c-4.16-25.63-20-57.32,5-78l-1,3c3.49-1.83,2.69-.84,4-5-4.67-1-4.79-2.95-3-7l4-1c-3-2.21-3.43-1.59-8-1,10.3-7.11,20.27,4.92,30,1v-7l4,1,1,6,11-3v-1l-20-44c-2.53,2.45-.54,1.22-3,2q-25.49-52-51-104h-1c.89,6.54,4.45,10.7,2,17-1-6.65-4-13.18-8-17l1,9-1-2c-4.26-3.49-7.13-8.09-9-14l-3,2a94,94,0,0,1,8,22c2.81-1.77,1.71-1.46,4-2l1,7h-1c-1.6-2.7-.34-1.38-3-3v1l7,19c-11.63-10-22.57-48.86-28-65l-2,2-2,1,3,6h-1l-2-1c-3.41-9.39-7.12-15.95-6-26l-4,3v1l15,51h-1l-5-11-3,2,7,18h-1v-2c-3-4.52-23-54.79-17-65,2.77,3.48,24.68,3.13,31,6,1-8.95-.71-18,1-22,2.33-1.35,1.79-1,1-6l4,1c.86,4.06,1.66,6.59,4,9,9.5-2,15.3-6.67,21-4l2,8c-5.44-1.14-5.26-.86-8,3l3,7h-1l-3-3c4.18,14.3,9.78,15.81,11,26l2-1c1.09-1.95,0-1.91,2-1l4,9c-3.26-2.16-2.68-3.43-7-5,6.4,16.5,8.39,27.55,19,37h1c.07-3.71.47-15.75,3-14,.77-1.19-.39-1.23,1-1l6,9,1-4c2,2.19,2.29,3.19,3,7h1c-.27-9.05-.7-10-3-16,4.14,1.69,4.27.54,8,2l4,15c3.91-2.47,1.9-2.19,8-2l-6-16c2.19-1.92,4.26-2.76,8-2l7,12c3.56-.1,3.12.49,7,2v-1l-7-14c13.76,4.87,19.69,21.35,29,31l-9-27,2,1,12,25h1c-1.82-7-4.95-10.36-2-17l3,3c-5.92-24.19-12.72-48.34-17-73-4.89,0-.83,1.41-5-2-.2,2.23.77,3.2-1,2V120l2,1c.68,4.51.24,3.87,3,6-5.95-15.93-23.87-51.69-5-59l-4-8h-1v6l-2-1-3-13c5.4,1.29,3.83,0,8,0,1.33,6.78,2.82,14.06,6,17l4-3c-.68,7.52,1.05,11.73,10,12,2.79-3.92,8.27-2.31,13,1v7h-1c-.77-4.42-.6-3.71-3-6h-1l3,9-3,1-4-9h-1v1c1.88,4.64,3.28,8.65,3,13l-2-1-4-10c-4.7-.47-4.05,1.09-8-1,3.15,12.07,10.13,33.05,18,38l-3-9,3,2-3-16,3,2,2,11,2-1-4-19h3c.94,4.63,2.21,6.43,5,9l-2-9c3.82.82,3,.35,6,2-1.61-5.28-3.51-4.47-4-8,3.31-.91,2.55.81,3-5l-10-24,5,1c-2.2-8.12-4.85-19.72-11-21l1-3,1-1h4c8,12,10.78,25.32,15,39h2V65c1.67,5.08,6.08,19.14,10,23h1c-.17-10.39,1.72-13.15,0-25h1c1.75,5.89,5.05,8.1,8,10-.31-7.63,4.07-14.2,9-13,2.64-1.6,6.84-3.2,14-2-2.55,12.15-2,16.21-3,26-2.88-.82-.73-2-3,0l-1,6,2-1,1-4,1,6h1l8-40,1,4h1c.94-4.33,1.36-4.7,4-7h1c.42,21-4.29,42.69-9,68h1l1-2c18.31-24.42,13.07-82.18,27-101h1v5l2-1C270.23,11.3,273.21,9,274.56,1Z"/><path class="cls-1" d="M317.56,2l1,3h-1Z"/><path class="cls-1" d="M291.56,24v2C292.54,24.25,292.48,25.78,291.56,24Z"/><path class="cls-1" d="M194.56,51l2,4-3-2Z"/><path class="cls-1" d="M196.56,55l3,8h-1V61Z"/><path class="cls-1" d="M186.56,63l1,2Z"/><path class="cls-1" d="M214.56,67l1,2,1-2Z"/><path class="cls-1" d="M210.56,73l-1,7h1Z"/><path class="cls-1" d="M213.56,73l-2,12h1l1-2Z"/><path class="cls-1" d="M144.56,78c-.6,4-.73,3.28,2,6C145.32,80,145.86,79.1,144.56,78Z"/><path class="cls-1" d="M509.56,80c2,5.27-1.24,20.87-4,26Z"/><path class="cls-1" d="M141.56,84c-.15,8.54,12,62.14,18,68-1.35-14.14-7.09-28-11-44l3,3Z"/><path class="cls-1" d="M145.56,86l5,10V93l-4-7Z"/><path class="cls-1" d="M221.56,86l-1,3,1,1h1Z"/><path class="cls-1" d="M391.56,89v2C392.54,89.25,392.48,90.78,391.56,89Z"/><path class="cls-1" d="M412.56,90l-2,3v1h6C415,89.8,416.75,91.55,412.56,90Z"/><path class="cls-1" d="M179.56,94l2,1Z"/><path class="cls-1" d="M231.56,99l-2,10h1Z"/><path class="cls-1" d="M410.56,99c1.4,1.92.11.6,2,2Z"/><path class="cls-1" d="M151.56,102c1.4,1.92.11.6,2,2Z"/><path class="cls-1" d="M244.56,106c-1.29,2.77-2,2.85-1,6l1-2Z"/><path class="cls-1" d="M504.56,106c2.73,6.1.11,19-3,24C501.74,119.4,503.81,117.71,504.56,106Z"/><path class="cls-1" d="M152.56,107l3,4C154.22,107.6,155,108.93,152.56,107Z"/><path class="cls-1" d="M185.56,121l2,9h1v-3Z"/><path class="cls-1" d="M520.56,127l3,2Z"/><path class="cls-1" d="M514.56,129l-2,7h3c1.29-3,.63-2.25,3-4,.73,3.59.7,2.87,2,5l2-1v-4l-3-3Z"/><path class="cls-1" d="M486.56,131l-1,2,1,1,2-2v-1Z"/><path class="cls-1" d="M524.56,135l3,6v-4Z"/><path class="cls-1" d="M505.56,145l2,2C506.17,145.08,507.46,146.4,505.56,145Z"/><path class="cls-1" d="M530.56,147l2,1Z"/><path class="cls-1" d="M506.56,149v2C507.54,149.25,507.48,150.78,506.56,149Z"/><path class="cls-1" d="M530.56,153c-2.34,7.9-1.72,17,0,24h2l1-3C531.38,167.7,537.26,158.49,530.56,153Z"/><path class="cls-1" d="M158.56,154c-2.35,8,2,12.25,3,20h1l2-1v-1C163.89,165,162.42,157.89,158.56,154Z"/><path class="cls-1" d="M499.56,154l1,2,1-2Z"/><path class="cls-1" d="M520.56,154v4l2-4Z"/><path class="cls-1" d="M51.56,156l1,5c-3.81,1-2.59-.82-3,5,3,6.82,13.82,21.57,12,25l-7-9,17,44,2-2C69.37,209.58,63.16,168,51.56,156Z"/><path class="cls-1" d="M502.56,158c-1.09,3.17-1.48,4.11-1,7h1c1.43-2.37,1.65-2.64,2-7Z"/><path class="cls-1" d="M14.56,159c.65,3.63.41,3,2,5Z"/><path class="cls-1" d="M516.56,160l-3,12h1l2-1Z"/><path class="cls-1" d="M3.56,161l3,5C5.5,162.35,5.75,163.06,3.56,161Z"/><path class="cls-1" d="M554.56,161v6h1v-2l1-4Z"/><path class="cls-1" d="M550.56,164v9l2-1C552.6,167.45,552.7,166.11,550.56,164Z"/><path class="cls-1" d="M26.56,165l1,9,2-1v-1Z"/><path class="cls-1" d="M554.56,168l-2,11,2,1Z"/><path class="cls-1" d="M7.56,175l7,16C13.4,184.92,12.23,177.86,7.56,175Z"/><path class="cls-1" d="M31.56,177l2,3Z"/><path class="cls-1" d="M549.56,179l1,2C550.14,180.07,551.37,180.32,549.56,179Z"/><path class="cls-1" d="M72.56,188l2,4Z"/><path class="cls-1" d="M77.56,196l2,3-2-2Z"/><path class="cls-1" d="M130.56,203c.89,4.8,1.4,5.95,5,8Z"/><path class="cls-1" d="M117.56,209v3h2Z"/><path class="cls-1" d="M124.56,212c-1.43,2-2.25,2.43-4,4l8,16C128.1,224.57,130.28,217.69,124.56,212Z"/><path class="cls-1" d="M140.56,212l14,38-3-2-6-17h-2c1.43,7.88,6,19.13,11,24,2.56-3.64,2-.88,6,2v-3l-17-42Z"/><path class="cls-1" d="M19.56,213l2,2C19.64,213.61,21,214.9,19.56,213Z"/><path class="cls-1" d="M580.56,213l1,3h-1Z"/><path class="cls-1" d="M45.56,215l2,3Z"/><path class="cls-1" d="M47.56,218c2,2.47,2.27,2.73,3,7h-1v-2Z"/><path class="cls-1" d="M118.56,218v3h2C119.3,218,120.58,219.8,118.56,218Z"/><path class="cls-1" d="M131.56,218l1,2,1-2Z"/><path class="cls-1" d="M138.56,233l4,8Z"/><path class="cls-1" d="M86.56,238c2.44,13.8,6.59,24,15,34h1v-1C98.26,260.88,94.05,245.4,86.56,238Z"/><path class="cls-1" d="M160.56,258c1.26,3,0,1.2,2,3l-1-3Z"/><path class="cls-1" d="M157.56,265l2,5Z"/><path class="cls-1" d="M557.56,273v4l3-1v-1Z"/><path class="cls-1" d="M102.56,277l19,38v-5C117,300.28,111.28,282.88,102.56,277Z"/><path class="cls-1" d="M113.56,277l1,5h1C114.92,278.37,115.16,279,113.56,277Z"/><path class="cls-1" d="M139.56,283l3,4Z"/><path class="cls-1" d="M146.56,289l1,5h1C147.92,290.37,148.16,291,146.56,289Z"/><path class="cls-1" d="M554.56,316c.68,11.84,2.88,12,1,22l1,1,3-2-2,8h3l2-3,1-21c-3-1.26-1.19,0-3-2-3,1.72-1.76,1.41-4,2C556,317,556.61,318,554.56,316Z"/><path class="cls-1" d="M122.56,317l5,9h1Z"/><path class="cls-1" d="M153.56,319l3,4C155.28,320,155.94,320.75,153.56,319Z"/><path class="cls-1" d="M77.56,342c2.77,1.16.53.31,0,3l-3,1v-3Z"/><path class="cls-1" d="M557.56,347l-1,1,2,2h3v-1Z"/><path class="cls-1" d="M553.56,353l2,3Z"/><path class="cls-1" d="M557.56,358v8l5-1v-5l-1-2Z"/><path class="cls-1" d="M558.56,377v5l2-1v-1Z"/><path class="cls-1" d="M76.56,379c-2.75,5.81-3.73,14.86-2,23h2C77.13,392.69,83.07,384.53,76.56,379Z"/><path class="cls-1" d="M105.56,398v3l2-1Z"/><path class="cls-1" d="M109.56,404c2.52,18.62,11.19,39.35,13,53l-3-2,24,65h1c.3-21-5.87-30-8-48h3c-2.19-5.65-2.26-11.23-9-13,3.13-3,3.52-1.34,4-5l-2-25-6-4-2,1c-.92,3.46-.61,5.67-3,8l-3,1-1-3C113.4,423.1,115.22,410.54,109.56,404Z"/><path class="cls-1" d="M123.56,415l-2,8,5-2C125.66,418.42,125.36,416.66,123.56,415Z"/><path class="cls-1" d="M560.56,415l2,1Z"/><path class="cls-1" d="M73.56,419l2,6h-1v-2Z"/><path class="cls-1" d="M136.56,435c-1.13,7.53.07,12,2,18h1v-2C141.83,446.37,140.29,439.06,136.56,435Z"/><path class="cls-1" d="M143.56,445c1.64,3.14,1.08,6.28,3,9C147.77,448.29,148.6,447.17,143.56,445Z"/><path class="cls-1" d="M552.56,445l1,2,1-2Z"/><path class="cls-1" d="M139.56,457l1,7h1C141.65,459.68,142.43,460.11,139.56,457Z"/><path class="cls-1" d="M559.56,465l1,8Z"/><path class="cls-1" d="M138.56,474l3,5v-5Z"/><path class="cls-1" d="M561.56,483c-2,11.89.46,20.19,2,32h4v-6l-3-13c-2.53,2.45-.54,1.22-3,2C562.36,493.81,564.76,487.92,561.56,483Z"/><path class="cls-1" d="M146.56,488c-.39,3.34-.4,4.26,2,7h1v-1Z"/><path class="cls-1" d="M550.56,496v3l1-3Z"/><path class="cls-1" d="M441.56,502l-2,11c2.42,2,2.21,2.13,3,6h1l2-11Z"/><path class="cls-1" d="M145.56,504l3,10h1l-1-10Z"/><path class="cls-1" d="M152.56,506c-.43,3.23-.4,5.27,2,8Z"/><path class="cls-1" d="M459.56,508c-4,5.42-5.41,9.09-4,18-2.83-1.11-1.45-.87-4-1v4c3.47.49,4.3.19,4,2l-3,3c1.13,4.56.24,1.77-1,8h1c3.27-.82,1.88-1.43,3,2h1l2-1,4-10c-3.41-3.61.71-.82-3-6l4-1c-1.72-1.23-2.62-1.33-4-3l7-5C464.85,514.81,462.49,510.17,459.56,508Z"/><path class="cls-1" d="M470.56,509c1.4,1.92.11.6,2,2Z"/><path class="cls-1" d="M544.56,509l1,5Z"/><path class="cls-1" d="M491.56,510l2,2C492.17,510.08,493.46,511.4,491.56,510Z"/><path class="cls-1" d="M504.56,513l-4,6,6,2v-5Z"/><path class="cls-1" d="M493.56,515v3l3-2v-1Z"/><path class="cls-1" d="M445.56,516c1.79,3.58-.53,1.18,3,3l-1-3Z"/><path class="cls-1" d="M146.56,518l2,14h1C149.78,525.48,149.13,521.46,146.56,518Z"/><path class="cls-1" d="M440.56,520l3,2C441.76,520,443.55,521.29,440.56,520Z"/><path class="cls-1" d="M569.56,521l2,3Z"/><path class="cls-1" d="M503.56,522l-1,5h1l2-3Z"/><path class="cls-1" d="M445.56,523c.41,4,.33,3.91,2,6C447.25,524.76,447.63,525,445.56,523Z"/><path class="cls-1" d="M530.56,530l2,3C531.3,530,532.58,531.8,530.56,530Z"/><path class="cls-1" d="M448.56,533v3h2Z"/><path class="cls-1" d="M447.56,546l3,8-1-8Z"/><path class="cls-1" d="M458.56,564l-1,3v1l4-2Z"/><path class="cls-1" d="M158.56,570l1,5h1v-3Z"/><path class="cls-1" d="M403.56,586c1.89,11.22,4.26,12.91,13,19C413.93,599.4,409.62,590.39,403.56,586Z"/><path class="cls-1" d="M409.56,586l4,11h2v-6Z"/><path class="cls-1" d="M441.56,587l3,3C443.19,588.1,443.59,588.36,441.56,587Z"/><path class="cls-1" d="M240.56,588l-1,2,4,2v-4Z"/><path class="cls-1" d="M151.56,591v4l2-2Z"/><path class="cls-1" d="M318.56,593l-2,9h8C324.19,595.48,323.21,595,318.56,593Z"/><path class="cls-1" d="M333.56,594l2,1Z"/><path class="cls-1" d="M359.56,594c1.36,5.22,1.12,7.29,5,10l2-1v-3l-5-6Z"/><path class="cls-1" d="M439.56,595l1,2Z"/><path class="cls-1" d="M154.56,596l-2,7c4.1.7,2,.65,6,3v-4Z"/><path class="cls-1" d="M395.56,596c1.57,11.22,5.37,14.29,7,22,4.5,1,4.22,1.67,6-3Q402.07,605.5,395.56,596Z"/><path class="cls-1" d="M246.56,597c2.13,2.08,1.85,2.59,2,7h-1c-1.44-1.63-6.09-3.9-3-4Z"/><path class="cls-1" d="M440.56,597l2,3Z"/><path class="cls-1" d="M146.56,598l2,4-2-1Z"/><path class="cls-1" d="M334.56,599l1,2,1-2Z"/><path class="cls-1" d="M385.56,599l-2,4c5.94,1.46,7,4.87,8,11l2-1v-1c-3.21-5.9-4.13-7.6-2-11l-2-2Z"/><path class="cls-1" d="M392.56,599l3,6v-3C394.19,600.1,394.59,600.36,392.56,599Z"/><path class="cls-1" d="M227.56,601v4l2-2Z"/><path class="cls-1" d="M417.56,601l3,4Z"/><path class="cls-1" d="M211.56,603l2,2C212.17,603.08,213.46,604.4,211.56,603Z"/><path class="cls-1" d="M410.56,605l9,15h1v-1l-3-6,3,3C419.06,610.09,415.7,607.4,410.56,605Z"/><path class="cls-1" d="M393.56,606v3h3v-1Z"/><path class="cls-1" d="M212.56,607c.28,5.46,1.31,8.15,4,11V608Z"/><path class="cls-1" d="M268.56,607l2,1Z"/><path class="cls-1" d="M358.56,608l-1,2,3,1v-3Z"/><path class="cls-1" d="M377.56,609c.3,3.42-.72,2.15,2,5h1v-1Z"/><path class="cls-1" d="M416.56,611l1,2Z"/><path class="cls-1" d="M428.56,614c.46,2.67-.61,1.51,2,4Z"/><path class="cls-1" d="M369.56,619c2.6,3.27,3.56,3.08,7,3l-3-2Z"/><path class="cls-1" d="M383.56,620l3,2C384.76,620,386.55,621.29,383.56,620Z"/><path class="cls-1" d="M393.56,620c1.4,1.92.11.6,2,2Z"/><path class="cls-1" d="M401.56,621l1,8,2-1v-5Z"/><path class="cls-1" d="M420.56,622l1,2C421.14,623.07,422.37,623.32,420.56,622Z"/><path class="cls-1" d="M375.56,625v5h2Z"/><path class="cls-1" d="M405.56,625c1.68,3.19-.5,1.14,3,2l-1-2Z"/><path class="cls-1" d="M437.56,629l2,4Z"/><path class="cls-1" d="M378.56,630l-4,2,1,2h6Z"/><path class="cls-1" d="M172.56,631c1.22,5.2,2.31,6.3,7,8Z"/><path class="cls-1" d="M428.56,633c.65,3.63.41,3,2,5v-3Z"/><path class="cls-1" d="M374.56,637l4,5C377.27,637.81,378,638.87,374.56,637Z"/><path class="cls-1" d="M413.56,637l2,2Z"/><path class="cls-1" d="M425.56,637v4h1Z"/><path class="cls-1" d="M196.56,641a27.71,27.71,0,0,0,9,14h1v-7l-1-3C202.65,644.08,201.65,643.25,196.56,641Z"/><path class="cls-1" d="M178.56,645l2,3Z"/><path class="cls-1" d="M194.56,645l4,9-4-3c3.48,12.53,3.2,10.9,11,20l2-1v-6Z"/><path class="cls-1" d="M175.56,646l2,3Z"/><path class="cls-1" d="M422.56,648l2,1Z"/><path class="cls-1" d="M181.56,651l2,2C182.17,651.08,183.46,652.4,181.56,651Z"/><path class="cls-1" d="M189.56,654l1,6,2-1v-3Z"/><path class="cls-1" d="M213.56,658l2,4Z"/><path class="cls-1" d="M190.56,663l1,3h1C191.3,663,192.58,664.8,190.56,663Z"/><path class="cls-1" d="M218.56,664l3,6Z"/><path class="cls-1" d="M213.56,666l2,2C214.17,666.08,215.46,667.4,213.56,666Z"/><path class="cls-1" d="M183.56,667c1.4,1.92.11.6,2,2Z"/><path class="cls-1" d="M219.56,671l1,3,2-2Z"/><path class="cls-1" d="M226.56,676c1.83,3.94,2.74,4.5,7,6Z"/><path class="cls-1" d="M207.56,678l-2,3C209,679.77,207.58,680.72,207.56,678Z"/><path class="cls-1" d="M219.56,679l2,2C220.17,679.08,221.46,680.4,219.56,679Z"/><path class="cls-1" d="M237.56,687v3h2C238.3,687,239.58,688.8,237.56,687Z"/><path class="cls-1" d="M202.56,693l2,1Z"/><path class="cls-1" d="M215.56,695l-1,2,3,1v-3Z"/></clipPath></defs></svg>