<?xml version="1.0" standalone="no"?>
<!DOCTYPE svg PUBLIC "-//W3C//DTD SVG 20010904//EN"
 "http://www.w3.org/TR/2001/REC-SVG-20010904/DTD/svg10.dtd">
<svg version="1.0" xmlns="http://www.w3.org/2000/svg"
 width="310.000000pt" height="310.000000pt" viewBox="0 0 310.000000 310.000000"
 preserveAspectRatio="xMidYMid meet">
<metadata>
Created by potrace 1.14, written by Peter Selinger 2001-2017
</metadata>
<g transform="translate(0.000000,310.000000) scale(0.100000,-0.100000)"
fill="#000000" stroke="none">
<path d="M655 2985 c-294 -45 -545 -273 -619 -562 -63 -245 -25 -534 106 -813
115 -242 326 -487 684 -792 15 -13 52 -47 83 -75 31 -29 59 -53 63 -53 4 0 4
12 1 28 -2 15 -6 68 -7 117 -3 131 14 233 57 345 18 48 31 75 81 165 52 93
218 266 376 390 41 33 82 65 90 72 207 164 283 246 348 374 42 82 112 159 172
189 82 41 182 26 256 -38 42 -36 76 -120 81 -201 12 -173 -67 -335 -261 -536
-61 -63 -150 -184 -141 -193 3 -3 54 26 65 38 3 3 30 22 60 42 30 21 67 48 82
60 14 13 46 39 70 58 99 79 278 290 278 328 0 6 4 12 8 14 18 7 105 233 116
303 3 17 9 50 14 75 10 54 7 134 -9 210 -47 227 -194 368 -459 439 -107 28
-274 27 -373 -4 -173 -53 -309 -152 -426 -307 -24 -32 -47 -58 -52 -58 -4 0
-14 10 -20 22 -7 13 -17 28 -23 35 -6 6 -29 33 -51 60 -70 83 -163 163 -235
202 -123 65 -268 88 -415 66z m171 -338 c51 -44 30 -128 -35 -141 -14 -3 -38
-8 -53 -10 -14 -2 -47 -13 -71 -24 -113 -50 -178 -167 -180 -320 -1 -94 16
-167 58 -252 26 -52 30 -71 24 -95 -15 -56 -104 -80 -138 -37 -27 34 -81 159
-95 220 -14 62 -16 245 -2 302 44 185 184 327 360 365 86 19 101 18 132 -8z"/>
<path d="M2912 2964 c-36 -25 -43 -58 -41 -183 5 -435 4 -454 -26 -585 -64
-274 -221 -522 -450 -711 -33 -28 -61 -53 -63 -57 -2 -5 -10 -8 -18 -8 -8 0
-14 -4 -14 -9 0 -12 -185 -134 -240 -158 -91 -40 -103 -42 -152 -30 -56 14
-70 106 -34 207 27 73 100 180 182 265 93 97 144 163 178 230 64 129 61 265
-8 310 -21 14 -31 15 -59 6 -46 -15 -77 -51 -127 -146 -67 -128 -150 -222
-315 -354 -49 -39 -108 -86 -130 -104 -140 -112 -258 -224 -302 -284 -10 -14
-23 -30 -28 -37 -12 -12 -42 -60 -72 -116 -23 -40 -59 -154 -71 -220 -19 -106
3 -318 43 -413 8 -19 11 -37 8 -41 -4 -3 -2 -6 3 -6 6 0 15 -15 22 -32 23 -65
103 -177 177 -250 50 -50 158 -128 176 -128 15 0 35 16 153 123 43 40 93 85
110 100 318 290 648 628 811 832 22 28 42 52 46 55 3 3 18 23 34 45 16 22 34
45 40 50 13 12 130 190 171 260 58 98 125 260 139 335 3 14 7 36 10 50 21 100
29 240 28 460 -1 295 -36 485 -96 536 -33 28 -54 30 -85 8z"/>
</g>
</svg>
